<svg width="13" height="16" viewBox="0 0 13 16" fill="none" xmlns="http://www.w3.org/2000/svg">
<path d="M4.30964 14.0905C4.3096 14.0946 4.30933 14.0988 4.30933 14.103C4.30933 15.1507 5.15866 16 6.20637 16C7.25408 16 8.10341 15.1507 8.10341 14.103C8.10341 14.0988 8.10313 14.0946 8.1031 14.0905H4.30964Z" fill="#ADB9C8"/>
<path d="M12.2632 11.7192L10.5558 9.21111C10.5558 8.44335 10.5558 6.56735 10.5558 6.08206C10.5558 3.97184 9.05299 2.21284 7.05925 1.81644V0.852887C7.05922 0.381875 6.67738 0 6.20633 0C5.73528 0 5.35344 0.381875 5.35344 0.852887V1.81647C3.3597 2.21291 1.85687 3.97191 1.85687 6.08209C1.85687 6.90819 1.85687 8.73233 1.85687 9.21115L0.149526 11.7192C-0.0303174 11.9834 -0.0493362 12.3253 0.100098 12.6078C0.249531 12.8903 0.542895 13.067 0.862488 13.067H11.5502C11.8698 13.067 12.1631 12.8903 12.3126 12.6078C12.462 12.3253 12.443 11.9833 12.2632 11.7192Z" fill="#ADB9C8"/>
</svg>
