<svg width="18" height="16" viewBox="0 0 18 16" fill="none" xmlns="http://www.w3.org/2000/svg">
<path d="M14.7345 16H2.86493C1.83085 16 0.904778 15.4653 0.38778 14.5698C-0.129217 13.6744 -0.129303 12.605 0.38778 11.7095L6.32264 1.43015C6.83963 0.534683 7.7657 0 8.79978 0C9.83387 0 10.7599 0.534683 11.2769 1.43015L17.2117 11.7095C17.7288 12.605 17.7288 13.6743 17.2117 14.5698C16.6946 15.4654 15.7685 16 14.7345 16ZM8.79978 0.822054C8.06288 0.822054 7.40302 1.20309 7.03455 1.84118L1.09972 12.1205C0.731285 12.7587 0.731343 13.5206 1.09972 14.1588C1.4681 14.7969 2.12805 15.1779 2.86496 15.1779H14.7345C15.4714 15.1779 16.1312 14.7969 16.4997 14.1588C16.8681 13.5207 16.8681 12.7586 16.4997 12.1205L10.5649 1.84118C10.1966 1.203 9.53669 0.822054 8.79978 0.822054ZM15.9745 12.167L10.252 2.25526C9.94886 1.73021 9.40599 1.41684 8.79978 1.41684C8.1935 1.41684 7.65062 1.73029 7.34752 2.25526L1.625 12.167C1.32181 12.692 1.3219 13.3188 1.625 13.8438C1.9281 14.3688 2.47098 14.6822 3.07727 14.6822H14.5223C15.1286 14.6822 15.6714 14.3688 15.9745 13.8438C16.2776 13.3188 16.2776 12.6919 15.9745 12.167ZM7.7634 5.34821C7.7634 4.7768 8.22829 4.31192 8.7997 4.31192C9.3711 4.31192 9.83599 4.7768 9.83599 5.34821V8.71128C9.83599 9.28272 9.3711 9.74758 8.7997 9.74758C8.22829 9.74758 7.7634 9.28269 7.7634 8.71128V5.34821ZM8.7997 12.8044C8.21414 12.8044 7.73775 12.328 7.73775 11.7424C7.73775 11.1569 8.21414 10.6805 8.7997 10.6805C9.38525 10.6805 9.86164 11.1569 9.86164 11.7424C9.86164 12.328 9.38525 12.8044 8.7997 12.8044Z" fill="#ADB9C8"/>
</svg>
