<svg width="20" height="16" viewBox="0 0 20 16" fill="none" xmlns="http://www.w3.org/2000/svg">
<path fill-rule="evenodd" clip-rule="evenodd" d="M18.3299 5.06562L13.5609 11.5203L9.0032 9.66507L8.39708 11.2039C8.79648 11.5547 9.04992 12.0728 9.04992 12.6504C9.04992 13.704 8.20829 14.5606 7.17398 14.5606C6.3433 14.5606 5.63749 14.0081 5.39148 13.245H3.52957V16H0V9.41969H3.52957V12.0558H5.39152C5.63757 11.2927 6.3433 10.7401 7.17402 10.7401C7.22265 10.7401 7.27093 10.7429 7.31921 10.7464L7.91873 9.22387L3.04224 7.23909L5.88354 0L18.3299 5.06562ZM13.6629 8.27098L12.5784 7.82978L12.145 8.93413L13.2292 9.37533L13.6629 8.27098ZM15.463 10.9245L18.6761 6.57593L20 7.11462L18.0859 11.992L15.463 10.9245Z" fill="#ADB9C8"/>
</svg>
