<svg width="17" height="16" viewBox="0 0 17 16" fill="none" xmlns="http://www.w3.org/2000/svg">
<path d="M9.06261 0V1.04971C9.10037 1.04971 9.13628 1.04123 9.17477 1.04971L16.0183 2.41822C16.3297 2.47999 16.5312 2.78326 16.4695 3.09419C16.4146 3.36766 16.1746 3.55598 15.9063 3.55598C15.8696 3.55598 15.8313 3.55164 15.7928 3.54429L9.06261 2.19855V2.83396C9.09282 2.83396 9.12303 2.82641 9.15459 2.83148L15.9983 3.94627C16.3114 3.99739 16.5243 4.29218 16.4727 4.60497C16.4267 4.88703 16.1835 5.08766 15.9063 5.08766C15.876 5.08766 15.8445 5.08518 15.813 5.08011L9.06136 3.98V4.4866C9.0892 4.48567 9.11682 4.47749 9.14455 4.48122L15.9876 5.47671C16.3007 5.52182 16.5187 5.81413 16.474 6.12785C16.4318 6.41364 16.1873 6.61934 15.9056 6.61934C15.8785 6.61934 15.8515 6.61747 15.8225 6.61365L9.06136 5.63047V6.20918C9.08413 6.20856 9.10555 6.20007 9.12883 6.20256L15.973 7.00653C16.2886 7.04398 16.5135 7.32915 16.477 7.64453C16.4424 7.93621 16.1946 8.15174 15.9062 8.15174C15.884 8.15174 15.862 8.14977 15.8393 8.14802L9.06116 7.35253V15.3167H16.7194V1.53157L9.06261 0ZM15.4425 9.95534C15.1798 9.95534 14.9644 9.74053 14.9644 9.4772C14.9644 9.21252 15.1798 8.99834 15.4425 8.99834C15.7072 8.99834 15.9214 9.21252 15.9214 9.4772C15.9214 9.74053 15.7071 9.95534 15.4425 9.95534Z" fill="#ADB9C8"/>
<path d="M2.55298 8.10311C2.69256 8.09618 2.83235 8.09111 2.971 8.09111C4.77708 8.09111 6.72006 8.70665 6.72006 10.0575V14.8118C6.72006 14.994 6.68229 15.1602 6.61773 15.3152H8.67959V0L2.55298 3.06325V8.10311Z" fill="#ADB9C8"/>
<path d="M2.97096 13.0281C1.33032 13.0281 0 12.497 0 11.8398V13.0281C0 13.6853 1.33032 14.2164 2.97096 14.2164C4.61159 14.2164 5.94191 13.6845 5.94191 13.0281V11.8398C5.94202 12.497 4.61159 13.0281 2.97096 13.0281Z" fill="#ADB9C8"/>
<path d="M2.97096 14.8117C1.33032 14.8117 0 14.2794 0 13.6229V14.8117C0 15.4683 1.33032 16 2.97096 16C4.61159 16 5.94191 15.4682 5.94191 14.8117V13.6229C5.94202 14.2794 4.61159 14.8117 2.97096 14.8117Z" fill="#ADB9C8"/>
<path d="M2.97096 8.8692C1.33032 8.8692 0 9.40032 0 10.0574V11.2456C0 11.9029 1.33032 12.4345 2.97096 12.4345C4.61159 12.4345 5.94191 11.9028 5.94191 11.2456V10.0574C5.94202 9.40032 4.61159 8.8692 2.97096 8.8692ZM2.97096 10.949C1.33819 10.949 0.296651 10.4208 0.296651 10.0574C0.296651 9.69386 1.33808 9.16658 2.97096 9.16658C4.60342 9.16658 5.64454 9.69397 5.64454 10.0574C5.64464 10.421 4.60342 10.949 2.97096 10.949Z" fill="#ADB9C8"/>
</svg>
