<svg width="18" height="18" viewBox="0 0 18 18" fill="none" xmlns="http://www.w3.org/2000/svg">
<path d="M9 2.63672C8.12769 2.63672 7.41797 3.34644 7.41797 4.21875C7.41797 5.09106 8.12769 5.80078 9 5.80078C9.87231 5.80078 10.582 5.09106 10.582 4.21875C10.582 3.34644 9.87231 2.63672 9 2.63672Z" fill="white"/>
<path d="M9 0C6.67378 0 4.78125 1.89253 4.78125 4.21875C4.78125 5.01649 5.00523 5.79364 5.42917 6.46614L9 12.1641L12.5708 6.46614C12.9948 5.79364 13.2188 5.01649 13.2188 4.21875C13.2188 1.89253 11.3262 0 9 0ZM9 6.85547C7.54623 6.85547 6.36328 5.67252 6.36328 4.21875C6.36328 2.76498 7.54623 1.58203 9 1.58203C10.4538 1.58203 11.6367 2.76498 11.6367 4.21875C11.6367 5.67252 10.4538 6.85547 9 6.85547Z" fill="white"/>
<path d="M6.43359 18H11.5649L11.1594 14.8008H6.82896L6.43359 18Z" fill="white"/>
<path d="M6.96069 13.7461H8.75064L7.25691 11.377L6.96069 13.7461Z" fill="white"/>
<path d="M12.0874 13.7461H16.2421L14.9237 10.582H11.6816L12.0874 13.7461Z" fill="white"/>
<path d="M1.75781 13.7461H5.89801L6.29352 10.582H3.07617L1.75781 13.7461Z" fill="white"/>
<path d="M9.24951 13.7461H11.0241L10.7243 11.4074L9.24951 13.7461Z" fill="white"/>
<path d="M5.76604 14.8008H1.31822L0 18H5.37067L5.76604 14.8008Z" fill="white"/>
<path d="M16.6818 14.8008H12.2229L12.6286 18H18.0001L16.6818 14.8008Z" fill="white"/>
</svg>
