<svg width="18" height="18" viewBox="0 0 18 18" fill="none" xmlns="http://www.w3.org/2000/svg">
<path d="M2.62766 11.5339C2.52576 11.7372 2.56545 11.9828 2.72599 12.1435L2.85494 12.2725C3.22752 11.831 3.66175 11.3518 4.18841 10.8253C4.22563 10.7881 4.26394 10.7701 4.3013 10.7357L3.47169 9.90601C2.98939 10.7783 2.70814 11.3743 2.62766 11.5339Z" fill="#ADB9C8"/>
<path d="M7.1714 13.8084C6.64351 14.3363 6.1656 14.7714 5.72656 15.1442L5.90125 15.3189C6.06329 15.481 6.31131 15.52 6.51524 15.4151C6.78839 15.2743 7.21796 15.0721 8.12983 14.5643L7.26108 13.6956C7.22675 13.733 7.20876 13.7712 7.1714 13.8084V13.8084Z" fill="#ADB9C8"/>
<path d="M6.89031 11.1071C6.50922 10.7261 5.4375 11.0677 4.93405 11.571C3.24985 13.2552 2.48918 14.4493 2.14764 15.1544C2.04972 15.3564 2.09051 15.5982 2.24926 15.757C2.40829 15.9161 2.65054 15.9565 2.85269 15.8586C3.54194 15.5239 4.72147 14.7668 6.42572 13.0627C6.9793 12.5089 7.25244 11.4694 6.89072 11.1076L6.89031 11.1071Z" fill="#ADB9C8"/>
<path d="M1.646 7.02107L0.154468 8.5126C-0.0141728 8.68124 -0.0487798 8.94231 0.0706967 9.14912C0.187289 9.3532 0.431461 9.45715 0.663822 9.39494C1.46994 9.17879 2.17925 9.08746 2.65688 9.20996C3.33639 8.00188 4.06657 6.88978 4.83987 5.87959C4.39259 5.59285 2.91451 5.75256 1.646 7.02107V7.02107Z" fill="#ADB9C8"/>
<path d="M8.92595 17.9435C9.12906 18.0462 9.37501 18.0065 9.53583 17.8455L11.0275 16.354C12.1823 15.1989 12.3855 13.7086 12.1235 13.2361C10.9969 14.0852 9.85553 14.8022 8.79068 15.4025C8.86415 15.8173 8.81526 16.2198 8.64154 17.3954C8.60762 17.6229 8.72517 17.8431 8.92595 17.9435V17.9435Z" fill="#ADB9C8"/>
<path d="M10.4694 5.28987C9.85265 5.90676 9.85265 6.91022 10.4694 7.5271C11.0863 8.14399 12.0899 8.14399 12.7068 7.5271C13.3236 6.91022 13.3236 5.90676 12.7068 5.28987C12.0899 4.67299 11.0863 4.67299 10.4694 5.28987Z" fill="#ADB9C8"/>
<path d="M17.969 0.51439C17.95 0.253602 17.7424 0.0474703 17.4824 0.0279695C16.1873 -0.0695343 14.8972 0.0897677 13.6327 0.476487C13.7279 1.34523 14.1772 2.28539 14.9443 3.05251C15.7206 3.8287 16.6863 4.2779 17.5706 4.36194C17.9112 3.16842 18.0727 1.89015 17.969 0.51439V0.51439Z" fill="#ADB9C8"/>
<path d="M14.1985 3.79834C13.321 2.92081 12.7851 1.86832 12.6132 0.843567C9.4465 2.14229 6.41509 4.97841 4.01965 8.96261L5.20975 10.1527C6.02288 9.82257 7.01 9.73536 7.63608 10.3613C8.26299 10.9884 8.17414 11.9751 7.84414 12.7871L9.07337 14.0163C12.1388 12.1688 15.7078 9.25815 17.2254 5.3856C16.1756 5.22698 15.0903 4.69016 14.1985 3.79834V3.79834ZM13.4525 8.27294C12.4246 9.30085 10.7518 9.30085 9.72376 8.27294C8.69572 7.2449 8.69572 5.57195 9.72376 4.54404C10.7518 3.51613 12.4246 3.51613 13.4525 4.54404C14.4806 5.57209 14.4806 7.2449 13.4525 8.27294Z" fill="#ADB9C8"/>
</svg>
