<svg width="17" height="16" viewBox="0 0 17 16" fill="none" xmlns="http://www.w3.org/2000/svg">
<path d="M1.59897 4.98839H3.85515C4.33163 4.98839 4.71823 4.60185 4.71823 4.12483C4.71823 3.78003 4.99739 3.50084 5.34216 3.50084H11.2933C11.6375 3.50084 11.9167 3.78003 11.9167 4.12483C11.9167 4.60185 12.3032 4.98839 12.7802 4.98839H15.0359C15.513 4.98839 15.8996 4.60185 15.8996 4.12483V2.44488C15.8996 1.09447 14.805 0 13.4547 0H3.1802C1.82986 0 0.735352 1.0945 0.735352 2.44488V4.1248C0.735411 4.60182 1.12195 4.98839 1.59897 4.98839Z" fill="#ADB9C8"/>
<path d="M16.5674 13.7616L15.4702 9.90463C14.9693 8.14333 13.4434 6.90031 11.6527 6.71492V5.69096C11.6527 5.04156 11.1263 4.51508 10.4769 4.51508C9.82692 4.51508 9.30061 5.04156 9.30061 5.69096V6.6776H7.33386V5.69147C7.33386 5.0421 6.80755 4.51567 6.15813 4.51567C5.50864 4.51567 4.98227 5.0421 4.98227 5.69147V6.71495C3.19112 6.89977 1.66515 8.14336 1.1643 9.90466L0.0671125 13.7616C-0.0836157 14.2912 0.0226015 14.8616 0.354986 15.3017C0.687251 15.7414 1.20649 16 1.75727 16H14.8771C15.4279 16 15.9472 15.7414 16.2795 15.3017C16.6118 14.8615 16.7181 14.2912 16.5674 13.7616ZM7.87546 13.7849C7.87546 13.9529 7.73947 14.089 7.57137 14.089H6.01391C5.84589 14.089 5.70976 13.9529 5.70976 13.7849V12.2275C5.70976 12.0594 5.84589 11.9234 6.01391 11.9234H7.57137C7.73944 11.9234 7.87546 12.0594 7.87546 12.2275V13.7849V13.7849ZM7.87546 10.734C7.87546 10.9021 7.73947 11.0381 7.57137 11.0381H6.0145C5.84643 11.0381 5.71036 10.9021 5.71036 10.734V9.17717C5.71036 9.0091 5.8464 8.87303 6.0145 8.87303H7.57137C7.73944 8.87303 7.87546 9.00913 7.87546 9.17717V10.734ZM10.9253 13.7844C10.9253 13.9524 10.7892 14.0885 10.6212 14.0885H9.06421C8.89619 14.0885 8.76012 13.9524 8.76012 13.7844V12.228C8.76012 12.0599 8.89619 11.9239 9.06421 11.9239H10.6212C10.7892 11.9239 10.9253 12.0599 10.9253 12.228V13.7844ZM10.9253 10.734C10.9253 10.9021 10.7892 11.0381 10.6212 11.0381H9.06477C8.89667 11.0381 8.76063 10.9021 8.76063 10.734V9.17762C8.76063 9.00955 8.89667 8.87348 9.06477 8.87348H10.6212C10.7892 8.87348 10.9253 9.00955 10.9253 9.17762V10.734Z" fill="#ADB9C8"/>
</svg>
