<svg width="17" height="19" viewBox="0 0 17 19" fill="none" xmlns="http://www.w3.org/2000/svg">
<mask id="path-1-outside-1" maskUnits="userSpaceOnUse" x="0" y="0" width="17" height="19" fill="black">
<rect fill="white" width="17" height="19"/>
<path fill-rule="evenodd" clip-rule="evenodd" d="M10.0946 5.38616L12.352 2L14.6094 5.38616H14.3602C13.8403 5.38616 13.4188 5.80762 13.4188 6.32749V10.4757C13.3225 10.3673 13.2398 10.2717 13.1662 10.1866C12.6411 9.57945 12.5787 9.50731 11.2852 9.11672V6.32749C11.2852 5.80762 10.8637 5.38616 10.3438 5.38616H10.0946ZM6.32749 9.84179H10.3438C12.0394 9.84179 13.4189 11.2212 13.4189 12.9168V18H11.2852V12.9168C11.2852 12.3969 10.8637 11.9755 10.3438 11.9755H6.32749C5.80762 11.9755 5.38616 12.3969 5.38616 12.9168V13.1661L2 10.9086L5.38616 8.6512V8.90046C5.38616 9.42033 5.80762 9.84179 6.32749 9.84179Z"/>
</mask>
<path fill-rule="evenodd" clip-rule="evenodd" d="M10.0946 5.38616L12.352 2L14.6094 5.38616H14.3602C13.8403 5.38616 13.4188 5.80762 13.4188 6.32749V10.4757C13.3225 10.3673 13.2398 10.2717 13.1662 10.1866C12.6411 9.57945 12.5787 9.50731 11.2852 9.11672V6.32749C11.2852 5.80762 10.8637 5.38616 10.3438 5.38616H10.0946ZM6.32749 9.84179H10.3438C12.0394 9.84179 13.4189 11.2212 13.4189 12.9168V18H11.2852V12.9168C11.2852 12.3969 10.8637 11.9755 10.3438 11.9755H6.32749C5.80762 11.9755 5.38616 12.3969 5.38616 12.9168V13.1661L2 10.9086L5.38616 8.6512V8.90046C5.38616 9.42033 5.80762 9.84179 6.32749 9.84179Z" fill="#ADB9C8"/>
<path d="M12.352 2L13.1841 1.4453L12.352 0.197224L11.5199 1.4453L12.352 2ZM10.0946 5.38616L9.26251 4.83146L8.22604 6.38616H10.0946V5.38616ZM14.6094 5.38616V6.38616H16.478L15.4415 4.83146L14.6094 5.38616ZM13.4188 10.4757L12.6715 11.1401L14.4188 13.1054V10.4757H13.4188ZM13.1662 10.1866L13.9226 9.53249L13.9226 9.53249L13.1662 10.1866ZM11.2852 9.11672H10.2852V9.85936L10.9961 10.074L11.2852 9.11672ZM13.4189 18V19H14.4189V18H13.4189ZM11.2852 18H10.2852V19H11.2852V18ZM5.38616 13.1661L4.83146 13.9981L6.38616 15.0346V13.1661H5.38616ZM2 10.9086L1.4453 10.0766L0.197224 10.9086L1.4453 11.7407L2 10.9086ZM5.38616 8.6512H6.38616V6.78268L4.83146 7.81915L5.38616 8.6512ZM11.5199 1.4453L9.26251 4.83146L10.9266 5.94086L13.1841 2.5547L11.5199 1.4453ZM15.4415 4.83146L13.1841 1.4453L11.5199 2.5547L13.7774 5.94086L15.4415 4.83146ZM14.3602 6.38616H14.6094V4.38616H14.3602V6.38616ZM14.4188 6.32749C14.4188 6.35991 14.3926 6.38616 14.3602 6.38616V4.38616C13.288 4.38616 12.4188 5.25534 12.4188 6.32749H14.4188ZM14.4188 10.4757V6.32749H12.4188V10.4757H14.4188ZM12.4099 10.8408C12.4833 10.9257 12.57 11.026 12.6715 11.1401L14.1662 9.81123C14.0749 9.70854 13.9963 9.61773 13.9226 9.53249L12.4099 10.8408ZM10.9961 10.074C11.6708 10.2777 11.8869 10.3619 12.0072 10.4326C12.0841 10.4778 12.1275 10.5143 12.4099 10.8408L13.9226 9.53249C13.6798 9.25179 13.4294 8.9486 13.0205 8.7083C12.6549 8.49347 12.1931 8.34628 11.5742 8.15941L10.9961 10.074ZM10.2852 6.32749V9.11672H12.2852V6.32749H10.2852ZM10.3438 6.38616C10.3114 6.38616 10.2852 6.35991 10.2852 6.32749H12.2852C12.2852 5.25534 11.416 4.38616 10.3438 4.38616V6.38616ZM10.0946 6.38616H10.3438V4.38616H10.0946V6.38616ZM10.3438 8.84179H6.32749V10.8418H10.3438V8.84179ZM14.4189 12.9168C14.4189 10.6689 12.5917 8.84179 10.3438 8.84179V10.8418C11.4871 10.8418 12.4189 11.7735 12.4189 12.9168H14.4189ZM14.4189 18V12.9168H12.4189V18H14.4189ZM11.2852 19H13.4189V17H11.2852V19ZM10.2852 12.9168V18H12.2852V12.9168H10.2852ZM10.3438 12.9755C10.3114 12.9755 10.2852 12.9492 10.2852 12.9168H12.2852C12.2852 11.8447 11.416 10.9755 10.3438 10.9755V12.9755ZM6.32749 12.9755H10.3438V10.9755H6.32749V12.9755ZM6.38616 12.9168C6.38616 12.9492 6.35991 12.9755 6.32749 12.9755V10.9755C5.25534 10.9755 4.38616 11.8447 4.38616 12.9168H6.38616ZM6.38616 13.1661V12.9168H4.38616V13.1661H6.38616ZM1.4453 11.7407L4.83146 13.9981L5.94086 12.334L2.5547 10.0766L1.4453 11.7407ZM4.83146 7.81915L1.4453 10.0766L2.5547 11.7407L5.94086 9.48325L4.83146 7.81915ZM6.38616 8.90046V8.6512H4.38616V8.90046H6.38616ZM6.32749 8.84179C6.35991 8.84179 6.38616 8.86804 6.38616 8.90046H4.38616C4.38616 9.97261 5.25534 10.8418 6.32749 10.8418V8.84179Z" fill="#ADB9C8" mask="url(#path-1-outside-1)"/>
</svg>
