<svg width="18" height="18" viewBox="0 0 18 18" fill="none" xmlns="http://www.w3.org/2000/svg">
<path fill-rule="evenodd" clip-rule="evenodd" d="M9 18C13.9706 18 18 13.9706 18 9C18 4.02944 13.9706 0 9 0C4.02944 0 0 4.02944 0 9C0 13.9706 4.02944 18 9 18ZM12.6094 6.49219C12.6094 7.80059 11.9326 8.9285 10.8949 9.56015C12.6996 10.1918 14.0531 11.7709 14.4141 13.7109H13.5117C13.0605 11.6355 11.2107 10.1016 9 10.1016C6.78928 10.1016 4.93945 11.6356 4.48829 13.7109H3.58594C3.94686 11.816 5.30038 10.2369 7.10506 9.56015C6.06737 8.92852 5.39062 7.80059 5.39062 6.49219C5.39062 4.50703 7.01486 2.88281 9 2.88281C10.9851 2.88281 12.6094 4.50703 12.6094 6.49219ZM9 3.78516C7.51114 3.78516 6.29297 5.00334 6.29297 6.49219C6.29297 7.98105 7.51114 9.19923 9 9.19923C10.4889 9.19923 11.707 7.98105 11.707 6.49219C11.707 5.00334 10.4889 3.78516 9 3.78516Z" fill="#ADB9C8"/>
</svg>
