<svg width="18" height="14" viewBox="0 0 18 14" fill="none" xmlns="http://www.w3.org/2000/svg">
<path d="M3.87878 3.60114L4.93347 3.60114L4.93347 1.06975L5.81238 1.06975L5.81238 0.000152271L2.99988 0.000152521L2.99988 1.06975L3.87878 1.06975L3.87878 3.60114Z" fill="#ADB9C8"/>
<path d="M13.1602 3.60101L14.2148 3.60101L14.2148 1.06963L15.0937 1.06963L15.0937 3.02009e-05L12.2812 3.04503e-05L12.2812 1.06963L13.1602 1.06963L13.1602 3.60101Z" fill="#ADB9C8"/>
<path fill-rule="evenodd" clip-rule="evenodd" d="M0 4.23437C0 3.1298 0.895431 2.23438 2 2.23438H16C17.1046 2.23438 18 3.12981 18 4.23438V12C18 13.1045 17.1046 14 16 14H2C0.89543 14 0 13.1045 0 12V4.23437ZM13.7645 4.80151H13.3522C13.3147 4.80151 13.2826 4.83119 13.2766 4.87162L12.902 7.38675H13.7645V4.80151ZM12.3135 11.3361C12.3099 11.3602 12.3162 11.3849 12.3308 11.4036C12.3453 11.4222 12.3667 11.433 12.3891 11.433L13.7642 11.433V8.67987H12.7092L12.3135 11.3361ZM14.2058 8.67987H15.2609L15.6565 11.3361C15.6601 11.3602 15.6538 11.3849 15.6393 11.4036C15.6247 11.4222 15.6034 11.433 15.5809 11.433L14.2058 11.433V8.67987ZM14.6937 4.87162C14.6877 4.83119 14.6557 4.80151 14.6181 4.80151H14.2058V7.38675H15.0683L14.6937 4.87162ZM11.1155 7.74768H16.8545C16.8968 7.74768 16.9311 7.78506 16.9311 7.83117V8.2353C16.9311 8.28142 16.8968 8.31882 16.8545 8.31882H16.1776V9.14035C16.1776 9.17799 16.1496 9.2085 16.1151 9.2085H15.8208C15.7862 9.2085 15.7582 9.17799 15.7582 9.14035V8.31882H12.2118V9.14035C12.2118 9.17799 12.1838 9.2085 12.1493 9.2085H11.855C11.8205 9.2085 11.7925 9.17799 11.7925 9.14035V8.31882H11.1155C11.0732 8.31882 11.039 8.28142 11.039 8.2353V7.83117C11.039 7.78506 11.0732 7.74768 11.1155 7.74768ZM3.69124 5.30145C3.69124 5.02531 3.9151 4.80145 4.19124 4.80145H9.34358C9.61973 4.80145 9.84358 5.02531 9.84358 5.30145V5.79889C9.84358 6.07503 9.61973 6.29889 9.34358 6.29889H4.19124C3.9151 6.29889 3.69124 6.07503 3.69124 5.79889V5.30145ZM3.69112 7.8685C3.69112 7.59236 3.91498 7.3685 4.19112 7.3685H9.34346C9.6196 7.3685 9.84346 7.59236 9.84346 7.8685V8.36594C9.84346 8.64208 9.6196 8.86594 9.34346 8.86594H4.19112C3.91498 8.86594 3.69112 8.64208 3.69112 8.36594V7.8685ZM4.43984 9.93555C4.02633 9.93555 3.69112 10.2708 3.69112 10.6843C3.69112 11.0978 4.02633 11.433 4.43984 11.433H9.09474C9.50825 11.433 9.84346 11.0978 9.84346 10.6843C9.84346 10.2708 9.50825 9.93555 9.09474 9.93555H4.43984ZM1.40627 5.30146C1.40627 5.02532 1.63012 4.80146 1.90627 4.80146H2.41799C2.69413 4.80146 2.91799 5.02532 2.91799 5.30146V5.7989C2.91799 6.07504 2.69413 6.2989 2.41799 6.2989H1.90627C1.63012 6.2989 1.40627 6.07504 1.40627 5.7989V5.30146ZM1.90614 7.36851C1.63 7.36851 1.40614 7.59236 1.40614 7.86851V8.36595C1.40614 8.64209 1.63 8.86595 1.90615 8.86595H2.41786C2.69401 8.86595 2.91786 8.64209 2.91786 8.36595V7.86851C2.91786 7.59237 2.69401 7.36851 2.41786 7.36851H1.90614ZM1.40614 10.4356C1.40614 10.1594 1.63 9.93556 1.90614 9.93556H2.41786C2.69401 9.93556 2.91786 10.1594 2.91786 10.4356V10.933C2.91786 11.2091 2.69401 11.433 2.41786 11.433H1.90615C1.63 11.433 1.40614 11.2091 1.40614 10.933V10.4356Z" fill="#ADB9C8"/>
</svg>
