<svg width="21" height="14" viewBox="0 0 21 14" fill="none" xmlns="http://www.w3.org/2000/svg">
<path d="M13.248 2.46612C13.5157 2.447 13.7451 2.23671 13.7451 1.96907V0.497047C13.7451 0.229406 13.5157 0 13.248 0C12.9804 0 12.751 0.229406 12.751 0.497047V1.96907C12.751 2.23671 12.9804 2.46612 13.248 2.46612Z" fill="#ADB9C8"/>
<path d="M17.3011 3.84258L18.3525 2.79113C18.5437 2.59996 18.5437 2.29408 18.3525 2.10291C18.1614 1.91174 17.8555 1.91174 17.6643 2.10291L16.6129 3.15436C16.4217 3.34553 16.4217 3.65141 16.6129 3.84258C16.804 4.03375 17.1099 4.03375 17.3011 3.84258Z" fill="#ADB9C8"/>
<path d="M19.9776 6.72925H18.5056C18.238 6.72925 18.0085 6.95865 18.0085 7.22629C18.0085 7.49394 18.238 7.72334 18.5056 7.72334H19.9776C20.2453 7.72334 20.4747 7.49394 20.4747 7.22629C20.4747 6.93954 20.2453 6.72925 19.9776 6.72925Z" fill="#ADB9C8"/>
<path d="M17.3011 10.5909C17.1099 10.3998 16.804 10.3998 16.6129 10.5909C16.4217 10.7821 16.4217 11.088 16.6129 11.2792L17.6643 12.3306C17.8555 12.5218 18.1614 12.5218 18.3525 12.3306C18.5437 12.1394 18.5437 11.8336 18.3525 11.6424L17.3011 10.5909Z" fill="#ADB9C8"/>
<path d="M9.19544 3.84258C9.38661 4.03375 9.69248 4.03375 9.88365 3.84258C10.0748 3.65141 10.0748 3.34553 9.88365 3.15436L8.83221 2.10291C8.64104 1.91174 8.33516 1.91174 8.14399 2.10291C7.95282 2.29408 7.95282 2.59996 8.14399 2.79113L9.19544 3.84258Z" fill="#ADB9C8"/>
<path d="M12.1585 7.87627C11.7188 7.87627 11.2791 7.97185 10.8968 8.14391C10.4953 8.31596 10.1512 8.5836 9.86447 8.90859C9.69242 9.11888 9.36743 9.138 9.17625 8.94683C8.96597 8.77477 8.94685 8.44978 9.13802 8.25861C9.52036 7.81891 9.99829 7.4748 10.5145 7.2454C10.61 7.20716 10.7247 7.14981 10.8203 7.11158C10.5145 6.51894 10.0556 6.0219 9.52036 5.63955C8.83215 5.16162 8.02922 4.89398 7.14983 4.89398C6.1175 4.89398 5.18076 5.27633 4.45431 5.88808C3.72785 6.51894 3.21169 7.39834 3.05875 8.41155C3.03963 8.56448 2.96317 8.67919 2.82935 8.75566C2.75288 8.81301 2.65729 8.83213 2.5617 8.83213C1.85437 8.83213 1.20438 9.11888 0.745571 9.59681C0.286758 10.0556 0 10.7056 0 11.4129C0 12.1203 0.286758 12.7703 0.764688 13.2291C1.2235 13.6879 1.87349 13.9938 2.58082 13.9938H12.1968C13.0188 14.0511 13.7835 13.707 14.3379 13.1335C14.8923 12.5791 15.2364 11.8144 15.2364 10.9541C15.2364 10.0939 14.8923 9.32917 14.3379 8.77477C13.7835 8.22038 13.0188 7.87627 12.1585 7.87627Z" fill="#ADB9C8"/>
<path d="M16.8614 7.22632C16.8614 6.23223 16.4599 5.3146 15.7908 4.66462C15.1408 4.01463 14.2232 3.59406 13.2291 3.59406C12.56 3.59406 11.91 3.78523 11.3556 4.11022C10.9542 4.35874 10.591 4.68374 10.3042 5.06608C10.5718 5.27637 10.8012 5.50577 11.0115 5.7543C11.3174 6.09841 11.5659 6.49987 11.7762 6.93956C11.8909 6.92045 12.0247 6.92045 12.1395 6.92045C13.2674 6.92045 14.2806 7.37926 15.007 8.10571C15.16 8.25865 15.3129 8.44982 15.4467 8.62188C15.657 8.90864 15.8291 9.23363 15.9438 9.57774C16.2305 9.3101 16.4408 8.98511 16.5746 8.641C16.7658 8.2013 16.8614 7.70425 16.8614 7.22632Z" fill="#ADB9C8"/>
</svg>
